<mxfile host="app.diagrams.net" modified="2023-09-25T16:09:19.277Z" agent="Mozilla/5.0 (X11; Linux x86_64) AppleWebKit/537.36 (KHTML, like Gecko) Chrome/117.0.0.0 Safari/537.36" etag="wLd6ojRjJt-xpmxmU29Y" version="21.7.5" type="device">
  <diagram name="Page-1" id="wAiT83aFaLoQJSstoIy2">
    <mxGraphModel dx="867" dy="570" grid="1" gridSize="10" guides="1" tooltips="1" connect="1" arrows="1" fold="1" page="1" pageScale="1" pageWidth="850" pageHeight="1100" math="0" shadow="0">
      <root>
        <mxCell id="0" />
        <mxCell id="1" parent="0" />
        <mxCell id="ncsUlH7SaaEAATTWxBmt-1" value="Project Management Tool" style="ellipse;whiteSpace=wrap;html=1;aspect=fixed;" vertex="1" parent="1">
          <mxGeometry x="130" y="120" width="80" height="80" as="geometry" />
        </mxCell>
        <mxCell id="ncsUlH7SaaEAATTWxBmt-2" value="" style="endArrow=classic;html=1;rounded=0;entryX=0.012;entryY=0.321;entryDx=0;entryDy=0;exitX=0.992;exitY=0.36;exitDx=0;exitDy=0;exitPerimeter=0;entryPerimeter=0;" edge="1" parent="1">
          <mxGeometry width="50" height="50" relative="1" as="geometry">
            <mxPoint x="210" y="169.99999999999994" as="sourcePoint" />
            <mxPoint x="332.08000000000004" y="170.45999999999998" as="targetPoint" />
          </mxGeometry>
        </mxCell>
        <mxCell id="ncsUlH7SaaEAATTWxBmt-4" value="" style="endArrow=classic;html=1;rounded=0;entryX=1;entryY=0.5;entryDx=0;entryDy=0;" edge="1" parent="1">
          <mxGeometry width="50" height="50" relative="1" as="geometry">
            <mxPoint x="330" y="150" as="sourcePoint" />
            <mxPoint x="210" y="150" as="targetPoint" />
          </mxGeometry>
        </mxCell>
        <mxCell id="ncsUlH7SaaEAATTWxBmt-3" value="Project Owner" style="rounded=1;whiteSpace=wrap;html=1;" vertex="1" parent="1">
          <mxGeometry x="330" y="130" width="120" height="60" as="geometry" />
        </mxCell>
        <mxCell id="ncsUlH7SaaEAATTWxBmt-6" value="Reques for Login" style="text;html=1;strokeColor=none;fillColor=none;align=center;verticalAlign=middle;whiteSpace=wrap;rounded=0;" vertex="1" parent="1">
          <mxGeometry x="212" y="110" width="110" height="30" as="geometry" />
        </mxCell>
        <mxCell id="ncsUlH7SaaEAATTWxBmt-7" value="Response" style="text;html=1;strokeColor=none;fillColor=none;align=center;verticalAlign=middle;whiteSpace=wrap;rounded=0;" vertex="1" parent="1">
          <mxGeometry x="212" y="170" width="110" height="30" as="geometry" />
        </mxCell>
      </root>
    </mxGraphModel>
  </diagram>
</mxfile>
